 <svg  version="1.0" xmlns="http://www.w3.org/2000/svg"  width="675.000000pt" height="675.000000pt" viewBox="0 0 675.000000 675.000000"  preserveAspectRatio="xMidYMid meet">  <g transform="translate(0.000000,675.000000) scale(0.100000,-0.100000)" fill="#ff73fa" stroke="none"> <path d="M3073 6738 c1 -8 -21 -15 -63 -20 -254 -29 -421 -61 -585 -113 -22 -7 -67 -21 -100 -31 -91 -27 -281 -100 -360 -138 -138 -67 -191 -94 -225 -114 -19 -12 -53 -30 -75 -41 -22 -12 -67 -39 -100 -61 -33 -22 -67 -43 -75 -47 -19 -8 -209 -151 -269 -201 -160 -135 -274 -246 -391 -382 -30 -35 -70 -78 -88 -96 -17 -18 -32 -35 -32 -39 0 -5 -76 -111 -108 -150 -24 -30 -150 -231 -165 -265 -4 -8 -17 -31 -29 -50 -30 -50 -148 -287 -148 -299 0 -6 -6 -25 -14 -43 -55 -129 -76 -182 -76 -192 0 -7 -13 -52 -28 -101 -66 -207 -97 -362 -132 -646 -13 -112 -13 -567 1 -694 16 -150 69 -459 87 -506 5 -13 17 -51 27 -84 10 -33 24 -77 31 -98 8 -20 14 -46 14 -56 0 -11 6 -32 14 -48 8 -15 29 -64 47 -108 34 -86 113 -260 129 -285 5 -8 19 -35 31 -60 19 -37 69 -123 134 -229 217 -353 610 -752 975 -988 125 -82 131 -85 175 -110 90 -51 344 -176 395 -194 30 -11 63 -24 72 -30 21 -11 91 -37 133 -49 17 -5 82 -25 145 -45 63 -20 138 -40 165 -45 28 -5 100 -19 160 -30 61 -12 148 -26 195 -32 113 -15 709 -16 830 -1 132 16 228 32 275 44 22 6 63 15 90 20 28 4 73 15 100 23 140 43 193 58 220 63 17 3 35 9 40 13 6 5 53 24 105 45 167 64 413 187 532 266 33 21 61 39 63 39 20 0 300 212 415 315 69 61 239 233 292 295 26 30 57 66 69 80 76 87 252 337 302 430 11 19 35 64 55 100 19 36 46 88 59 115 63 130 82 173 96 210 34 91 60 151 68 160 5 5 9 18 9 29 0 20 52 197 72 246 6 14 14 48 18 75 5 28 20 118 34 200 14 83 29 182 33 220 5 47 12 69 21 68 9 -2 12 60 12 283 0 240 -2 289 -15 298 -9 7 -18 46 -25 119 -6 59 -20 156 -31 215 -12 59 -25 127 -29 152 -5 25 -16 68 -24 95 -21 68 -56 185 -62 210 -3 11 -19 54 -36 95 -16 41 -37 93 -46 115 -8 22 -28 68 -44 103 -15 34 -28 66 -28 71 0 5 -7 14 -15 21 -8 7 -15 19 -15 26 0 8 -13 35 -29 61 -15 27 -46 79 -67 117 -21 38 -47 80 -56 95 -10 14 -21 33 -25 41 -20 41 -170 243 -230 310 -24 26 -43 50 -43 53 0 6 -15 22 -140 151 -106 109 -331 316 -344 316 -6 0 -106 73 -208 152 -20 15 -39 28 -43 28 -3 0 -24 12 -48 27 -60 39 -67 43 -154 89 -43 23 -100 53 -126 67 -83 45 -262 99 -402 122 -259 43 -505 42 -755 -2 -236 -42 -213 -36 -335 -80 -22 -8 -55 -21 -73 -29 -18 -8 -41 -14 -51 -14 -10 0 -24 -7 -31 -15 -7 -8 -16 -15 -21 -15 -36 0 -244 -120 -345 -200 -28 -22 -54 -40 -57 -40 -3 0 -21 -15 -40 -32 -19 -18 -54 -51 -77 -73 -47 -44 -139 -156 -167 -203 -10 -17 -34 -57 -54 -90 -20 -32 -51 -97 -69 -143 -18 -46 -39 -99 -46 -117 -8 -18 -14 -46 -14 -62 0 -16 -4 -40 -9 -53 -19 -49 -32 -327 -21 -457 13 -168 36 -263 94 -395 15 -32 26 -61 26 -66 0 -5 20 -38 44 -73 24 -35 45 -68 47 -74 6 -16 80 -100 150 -171 112 -111 248 -208 399 -283 111 -55 206 -98 216 -98 4 0 25 -9 48 -19 23 -11 75 -29 116 -42 41 -12 82 -26 90 -30 20 -11 110 -35 200 -55 41 -9 91 -21 110 -26 19 -6 55 -13 80 -18 127 -21 354 -85 381 -107 8 -7 22 -13 31 -13 27 0 221 -104 278 -149 95 -75 226 -209 239 -245 2 -6 17 -27 32 -47 16 -20 29 -41 29 -47 0 -6 6 -23 14 -39 54 -108 76 -188 90 -325 11 -101 11 -143 0 -233 -15 -114 -34 -206 -58 -265 -8 -19 -24 -60 -36 -90 -12 -30 -33 -69 -46 -87 -13 -17 -24 -35 -24 -40 0 -4 -22 -34 -49 -65 -27 -32 -51 -61 -53 -65 -7 -17 -208 -193 -219 -193 -5 0 -37 -20 -72 -45 -36 -25 -69 -45 -74 -45 -4 0 -24 -11 -43 -24 -19 -13 -60 -33 -90 -46 -30 -12 -74 -31 -98 -42 -48 -22 -168 -54 -252 -68 -30 -5 -77 -14 -105 -21 -79 -19 -477 -15 -540 5 -27 9 -65 16 -82 16 -36 0 -192 39 -263 65 -25 9 -64 21 -88 26 -47 9 -211 63 -239 78 -10 5 -38 17 -63 26 -74 29 -130 56 -136 66 -3 5 -15 9 -28 9 -12 0 -26 4 -32 9 -5 6 -29 21 -54 34 -167 89 -264 154 -415 273 -126 100 -364 339 -445 446 -103 137 -204 297 -269 428 -64 127 -161 371 -161 403 0 13 -4 27 -8 32 -8 9 -35 107 -61 218 -6 27 -16 90 -21 140 -6 51 -15 110 -20 132 -16 66 -12 539 5 610 8 33 14 78 15 100 0 63 31 224 65 335 9 30 20 73 25 95 10 45 67 214 78 230 5 5 14 28 21 50 12 35 46 110 70 155 4 8 16 33 27 55 10 22 31 59 46 83 15 24 28 47 28 52 0 8 129 196 190 276 73 96 208 239 326 344 67 59 284 223 314 237 8 3 33 18 55 32 85 54 331 181 351 181 8 0 25 6 37 14 21 14 192 75 322 116 60 18 137 35 290 64 161 30 203 36 340 47 77 6 143 13 147 15 31 20 -19 24 -272 24 -213 0 -279 -3 -277 -12z"/> </g> </svg> 