 <svg  version="1.0" xmlns="http://www.w3.org/2000/svg"  width="900.000000pt" height="900.000000pt" viewBox="0 0 900.000000 900.000000"  preserveAspectRatio="xMidYMid meet">  <g transform="translate(0.000000,900.000000) scale(0.100000,-0.100000)" fill="#ff73fa" stroke="none"> <path d="M810 6583 c0 -2445 6 -2886 36 -3018 35 -154 96 -358 129 -430 12 -27 25 -63 29 -80 4 -16 13 -45 21 -63 8 -17 21 -47 29 -65 38 -87 284 -575 313 -619 18 -27 33 -52 33 -55 0 -3 12 -22 28 -42 15 -20 32 -44 37 -53 6 -9 33 -50 61 -90 28 -40 72 -104 99 -143 67 -98 122 -168 264 -335 157 -186 622 -645 721 -713 25 -17 47 -34 50 -37 8 -10 209 -160 214 -160 3 0 40 -24 81 -52 94 -65 126 -86 145 -95 8 -4 42 -23 75 -42 104 -61 161 -90 398 -207 27 -13 54 -24 61 -24 7 0 30 -13 52 -29 21 -15 50 -31 64 -34 14 -3 50 -15 80 -26 104 -41 135 -52 165 -60 17 -5 41 -13 55 -19 14 -5 52 -18 85 -27 33 -10 71 -22 85 -27 53 -21 130 -31 260 -35 183 -6 230 2 525 94 28 8 73 26 100 38 28 12 61 26 75 29 59 16 145 54 366 162 94 46 175 84 178 84 11 0 259 151 297 181 20 16 40 29 43 29 10 0 359 263 455 343 112 94 495 478 613 615 106 124 212 257 279 352 25 36 71 101 103 145 32 44 61 87 64 95 3 8 18 31 34 51 15 20 28 39 28 42 0 4 12 23 26 44 14 21 30 47 35 58 5 11 24 47 42 80 76 137 135 255 166 330 19 44 47 108 62 143 16 34 29 68 29 75 0 7 6 21 13 32 8 11 16 29 20 40 3 11 15 45 27 75 36 94 73 213 104 335 50 202 47 151 55 907 4 392 8 1528 9 2523 1 996 5 1874 9 1953 l6 142 -3716 0 -3717 0 0 -2417z m4622 2249 c9 -9 7 -21 -11 -54 -85 -159 -83 -335 6 -513 21 -43 83 -129 104 -145 3 -3 9 -14 13 -25 5 -16 -6 -32 -44 -70 -28 -27 -50 -53 -50 -57 0 -5 -11 -27 -25 -49 -45 -70 -65 -153 -65 -267 0 -96 3 -109 36 -190 23 -55 53 -107 82 -140 77 -88 77 -88 58 -116 -9 -14 -24 -33 -34 -43 -38 -38 -79 -101 -107 -163 -24 -55 -29 -81 -33 -177 -3 -95 -1 -120 17 -174 30 -84 41 -104 105 -186 32 -41 56 -82 56 -95 0 -15 -16 -40 -44 -67 -24 -23 -53 -61 -65 -84 -12 -23 -26 -49 -30 -57 -74 -127 -40 -527 47 -554 77 -25 345 -34 433 -15 64 14 147 63 218 129 29 27 57 50 61 50 5 0 43 -31 85 -70 42 -38 84 -70 91 -70 8 0 25 -6 37 -14 76 -48 350 -47 442 1 69 37 131 84 154 118 13 19 26 35 30 35 3 0 47 -31 96 -68 50 -37 108 -75 130 -84 89 -37 261 -48 370 -24 73 16 99 30 177 92 33 27 74 58 91 68 l30 19 21 -28 c29 -41 71 -76 124 -105 31 -18 49 -35 55 -55 12 -37 15 -1461 4 -1528 -7 -41 -14 -52 -49 -75 -22 -15 -66 -51 -99 -79 -32 -29 -67 -53 -76 -53 -10 0 -44 25 -76 55 -31 30 -75 64 -97 75 -152 78 -333 81 -485 8 -42 -20 -77 -40 -85 -48 -34 -35 -106 -90 -118 -90 -8 0 -38 22 -66 48 -63 60 -124 96 -205 122 -121 38 -311 18 -408 -43 -24 -15 -47 -27 -52 -27 -6 0 -14 -6 -18 -13 -4 -6 -29 -31 -56 -55 l-47 -43 -65 58 c-80 72 -130 100 -220 124 -145 38 -424 13 -463 -43 -39 -55 -64 -286 -43 -408 14 -84 67 -190 130 -262 28 -31 51 -62 51 -70 0 -8 -21 -34 -46 -58 -25 -25 -50 -54 -55 -65 -5 -11 -18 -35 -29 -53 -77 -127 -80 -314 -9 -477 7 -16 40 -65 72 -108 69 -91 69 -98 2 -176 -86 -101 -125 -210 -125 -352 0 -140 44 -254 142 -364 59 -66 60 -62 -27 -165 -30 -36 -55 -68 -55 -72 0 -4 -13 -36 -30 -71 -27 -59 -30 -75 -30 -164 0 -152 50 -289 139 -381 52 -54 55 -81 14 -125 -51 -55 -87 -108 -108 -161 -17 -40 -32 -58 -74 -87 -30 -20 -77 -44 -105 -53 -49 -17 -166 -63 -234 -92 -18 -8 -39 -14 -47 -14 -8 0 -29 -6 -47 -14 -18 -8 -60 -21 -93 -29 -33 -9 -87 -23 -121 -31 -78 -21 -269 -21 -338 -2 -130 37 -193 55 -221 64 -16 6 -57 18 -90 28 -33 10 -71 23 -85 30 -32 15 -99 41 -126 48 -34 10 -79 68 -99 129 -10 31 -24 62 -32 68 -7 6 -13 16 -13 21 0 5 -22 36 -50 69 -27 33 -50 68 -50 79 0 10 19 41 43 68 50 59 103 161 123 238 38 145 -2 335 -94 447 -26 32 -57 73 -70 90 l-23 31 44 45 c110 115 139 182 153 356 10 125 -49 298 -129 377 -58 57 -56 84 12 166 42 51 58 78 79 132 20 53 42 160 42 205 0 44 -25 176 -39 203 -5 9 -17 34 -27 55 -11 22 -45 67 -76 102 -32 35 -58 66 -58 70 0 3 13 18 28 33 46 43 108 132 131 187 11 28 27 86 36 130 15 73 15 88 0 190 -20 132 -39 189 -68 207 -38 24 -173 48 -273 48 -98 0 -226 -23 -254 -46 -8 -6 -34 -21 -56 -32 -23 -12 -62 -44 -86 -71 l-46 -51 -30 23 c-17 12 -57 42 -89 67 -64 50 -88 63 -178 91 -77 24 -226 26 -287 3 -85 -31 -172 -80 -215 -121 -58 -57 -85 -57 -141 1 -79 82 -223 136 -361 136 -140 0 -263 -50 -369 -149 -54 -51 -66 -54 -93 -25 -27 29 -126 107 -149 117 -8 4 -22 11 -30 16 -8 5 -28 13 -45 17 -20 6 -36 21 -47 44 -17 32 -18 90 -18 760 0 800 -3 761 63 775 17 4 39 13 47 19 8 7 32 21 53 31 21 11 62 41 92 68 29 26 61 47 70 47 9 0 48 -27 87 -60 99 -83 130 -97 248 -111 81 -10 121 -10 198 0 107 14 161 38 233 103 90 82 96 82 179 5 28 -26 70 -57 93 -69 55 -28 161 -47 267 -47 146 0 224 29 330 124 73 64 99 75 113 49 13 -25 93 -99 121 -112 115 -55 119 -56 245 -60 143 -5 297 12 325 37 31 28 49 73 62 161 17 111 17 179 0 265 -25 122 -67 203 -145 279 l-40 39 43 56 c24 31 54 67 66 81 74 83 108 265 76 410 -27 120 -51 169 -130 259 l-56 65 32 35 c18 20 36 38 39 41 18 16 69 102 87 145 85 206 32 449 -131 595 l-29 25 49 64 c99 130 116 161 134 251 5 25 13 65 18 90 11 51 -13 182 -49 264 -26 62 -26 84 3 91 44 10 203 12 949 10 572 -1 761 -4 770 -13z m-3186 -207 c11 -18 18 -59 23 -142 l6 -118 107 -5 c101 -6 127 -13 150 -45 15 -19 9 -179 -7 -202 -14 -20 -90 -36 -215 -45 l-35 -3 -3 -287 -2 -288 54 0 c53 0 129 18 194 46 18 8 37 14 42 14 11 0 145 65 181 88 67 43 137 82 147 82 6 0 18 -10 26 -22 14 -19 16 -64 15 -308 -1 -157 -4 -298 -8 -315 -9 -42 -40 -44 -97 -6 -25 17 -47 31 -49 31 -2 0 -24 14 -48 30 -25 17 -52 30 -60 30 -9 0 -19 5 -22 10 -10 16 -82 50 -105 50 -11 0 -31 7 -44 15 -16 11 -54 16 -122 18 l-99 2 0 -300 0 -300 115 -11 c136 -14 148 -18 158 -53 9 -34 9 -148 0 -182 -9 -32 -27 -38 -168 -53 l-105 -11 -6 -125 c-6 -129 -21 -181 -54 -194 -9 -3 -52 -6 -95 -6 -100 0 -117 12 -130 95 -6 33 -10 94 -10 135 0 41 -4 80 -8 87 -4 7 -49 15 -112 19 -58 4 -117 13 -132 20 -33 17 -43 68 -31 169 8 69 9 70 43 82 19 6 79 14 133 18 60 5 97 12 97 19 5 205 -1 591 -10 596 -17 10 -190 -16 -254 -39 -86 -30 -140 -59 -246 -129 -52 -34 -102 -61 -110 -60 -10 2 -17 21 -22 58 -8 71 -10 603 -2 624 10 26 33 19 118 -37 85 -56 131 -82 206 -115 44 -20 60 -25 171 -56 63 -18 135 -21 144 -6 7 12 8 547 1 559 -3 5 -51 12 -107 16 -140 10 -152 14 -161 56 -5 19 -5 69 -2 112 8 102 19 110 158 115 56 2 107 9 114 14 7 6 12 35 12 71 0 33 5 89 11 123 13 76 24 82 151 83 83 1 88 0 104 -24z m4299 -5096 c24 -36 47 -37 65 -4 18 35 33 31 56 -12 12 -23 29 -39 44 -43 31 -7 39 -49 13 -72 -61 -52 -272 -47 -324 8 -26 27 -16 48 29 59 32 8 42 21 42 57 0 14 3 33 6 42 8 21 44 3 69 -35z m622 -31 c7 -14 14 -58 15 -99 l3 -73 -37 -6 c-48 -8 -62 -21 -89 -78 -47 -99 -90 -162 -111 -162 -27 0 -58 27 -58 50 0 10 -7 23 -15 30 -15 13 -40 -8 -93 -79 -13 -17 -32 -31 -43 -31 -11 0 -20 -9 -23 -22 -3 -13 -7 -214 -10 -448 -3 -257 -9 -450 -16 -487 -12 -60 -13 -63 -46 -69 -61 -11 -175 0 -188 19 -20 26 -37 331 -38 642 -1 282 13 463 36 477 6 4 57 8 113 8 l101 0 21 -36 c12 -19 26 -34 32 -32 6 2 21 22 33 43 43 80 76 124 96 130 23 7 40 -1 40 -19 0 -20 46 -58 67 -54 10 2 19 14 21 28 2 13 13 35 23 49 24 30 24 62 -1 93 -18 23 -18 27 -3 47 21 30 133 113 147 108 6 -2 17 -15 23 -29z m-1151 9 c24 -14 80 -63 107 -94 18 -21 18 -22 -2 -50 -18 -24 -19 -33 -11 -63 15 -50 43 -103 57 -107 13 -5 63 46 63 64 0 7 9 17 20 23 24 13 56 -19 100 -101 46 -87 37 -163 -12 -99 -60 79 -65 83 -82 77 -9 -4 -19 -15 -23 -24 -10 -29 -35 -53 -54 -53 -17 0 -50 38 -76 88 -67 126 -86 152 -117 152 -41 0 -50 15 -49 79 2 62 24 121 46 121 6 -1 22 -6 33 -13z m-261 -107 c4 -6 28 -22 55 -35 49 -25 88 -75 75 -95 -17 -28 -103 8 -159 66 -45 47 -48 74 -7 74 17 0 33 -5 36 -10z m1673 -14 c5 -23 -52 -83 -97 -102 -48 -20 -91 -19 -91 4 1 27 21 47 77 75 28 15 55 31 58 37 11 17 49 7 53 -14z m-693 -111 l0 -40 -150 -3 c-82 -1 -160 0 -172 3 -30 7 -39 42 -17 66 16 18 30 19 178 17 l161 -3 0 -40z m-719 -77 c16 -18 38 -49 49 -68 10 -19 29 -53 41 -75 13 -22 38 -69 57 -105 47 -90 78 -136 132 -195 52 -57 70 -109 62 -178 -8 -59 -12 -67 -43 -67 -21 0 -24 5 -24 33 0 18 -5 38 -11 44 -15 15 -39 5 -39 -16 0 -9 -5 -22 -12 -29 -15 -15 -38 2 -38 28 0 25 -30 34 -51 14 -16 -14 -18 -14 -28 5 -12 22 1 71 19 71 5 0 10 14 10 30 0 20 -5 30 -15 30 -8 0 -15 -8 -15 -18 0 -41 -54 -58 -65 -21 -4 12 -1 40 6 62 12 36 11 41 -6 53 -10 8 -31 14 -46 14 -38 0 -44 15 -19 47 l21 28 -23 18 c-51 40 -58 47 -58 62 0 8 9 19 20 25 31 16 24 29 -25 50 -49 21 -55 36 -29 75 21 32 13 51 -25 58 -21 5 -31 12 -31 25 0 29 8 32 85 32 67 0 73 -2 101 -32z m1272 4 c3 -18 -2 -23 -27 -28 -43 -9 -47 -21 -21 -57 l23 -30 -27 -24 c-15 -13 -33 -23 -40 -23 -8 0 -20 -7 -27 -16 -12 -15 -11 -19 9 -32 32 -21 27 -46 -13 -73 -39 -27 -41 -35 -20 -63 24 -32 18 -46 -19 -46 -19 0 -42 -7 -50 -16 -19 -19 -19 -14 -2 -55 27 -66 -18 -109 -52 -49 -34 59 -54 21 -23 -43 12 -24 21 -48 21 -54 0 -18 -28 -23 -40 -7 -18 21 -26 18 -49 -22 -23 -38 -41 -38 -41 1 0 13 -4 26 -9 29 -17 11 -41 -6 -41 -29 0 -38 -11 -55 -35 -55 -30 0 -35 16 -35 103 1 65 3 75 31 107 70 82 117 149 149 215 57 114 139 248 168 273 23 19 37 22 97 20 64 -3 70 -5 73 -26z m-932 -777 c7 -17 -9 -44 -60 -98 -61 -65 -56 -101 17 -116 24 -5 33 -13 35 -31 3 -19 -16 -43 -98 -122 -78 -75 -100 -103 -95 -116 21 -48 17 -57 -27 -74 -61 -23 -136 -32 -154 -17 -8 6 -14 24 -14 40 0 38 58 159 76 159 8 0 14 -4 14 -9 0 -14 40 -21 64 -11 38 16 119 98 113 114 -3 8 -27 25 -54 38 -26 13 -49 29 -51 36 -4 15 198 222 217 222 6 0 14 -7 17 -15z m495 -29 c24 -18 71 -63 103 -101 65 -74 67 -91 9 -110 -33 -11 -63 -33 -63 -46 0 -5 23 -32 51 -59 41 -40 58 -50 84 -50 19 0 36 4 40 10 18 30 76 -61 91 -144 10 -56 -8 -67 -83 -50 -32 6 -75 19 -95 28 l-38 16 18 36 17 36 -30 25 c-165 139 -207 193 -165 213 102 48 109 59 64 101 -47 44 -86 99 -80 114 8 23 29 18 77 -19z m-141 -439 c17 -9 26 -22 28 -44 3 -30 1 -31 -49 -43 -34 -8 -84 -11 -143 -7 -109 8 -146 17 -160 41 -9 14 -6 22 17 42 27 23 35 24 155 24 82 0 136 -5 152 -13z m-14 -161 c31 -10 40 -19 42 -39 3 -23 0 -27 -22 -27 -34 0 -56 -25 -56 -64 0 -18 -6 -40 -13 -50 -12 -16 -16 -14 -49 23 -20 23 -42 41 -50 41 -7 0 -21 -14 -30 -30 -21 -37 -36 -38 -48 -2 -17 47 -27 57 -56 57 -65 0 -17 87 58 106 43 11 175 2 224 -15z"/> <path d="M3311 5378 c-11 -24 -24 -56 -30 -71 -16 -40 -40 -46 -65 -14 -60 75 -70 -4 -18 -131 34 -84 27 -96 -59 -100 -74 -4 -89 -13 -89 -57 0 -46 43 -65 144 -65 105 0 352 -49 420 -84 50 -25 138 -107 212 -197 99 -122 146 -169 224 -228 94 -71 126 -91 143 -91 25 0 107 -81 128 -127 20 -44 20 -44 0 -76 -31 -49 -57 -61 -156 -67 -88 -5 -90 -6 -90 -30 0 -19 6 -26 30 -31 39 -9 779 -11 828 -2 34 5 38 9 35 32 -3 25 -5 26 -93 32 -49 3 -102 11 -117 19 -30 14 -59 65 -51 89 24 76 53 107 128 140 28 13 61 28 75 34 14 7 149 136 300 288 362 363 413 405 526 428 76 16 158 2 200 -34 26 -22 29 -31 29 -86 0 -61 -1 -62 -51 -108 -28 -25 -66 -53 -85 -62 -82 -39 -210 -79 -254 -79 -16 0 -54 -6 -84 -14 -31 -8 -86 -22 -122 -31 -71 -18 -111 -49 -143 -113 -16 -32 -16 -35 2 -70 18 -36 21 -37 72 -37 l53 0 27 50 c31 58 80 95 124 95 37 0 162 25 231 47 69 21 170 69 232 110 69 45 113 129 113 213 0 101 -64 196 -148 220 -56 15 -201 12 -263 -6 -64 -18 -156 -63 -191 -91 -7 -7 -42 -26 -77 -43 -58 -29 -75 -33 -182 -37 l-119 -6 -33 37 -33 36 -137 0 c-84 0 -146 5 -162 12 -30 13 -55 55 -55 90 0 32 -10 44 -45 52 -43 11 -55 24 -55 60 0 32 -40 86 -63 86 -21 -1 -52 -34 -67 -70 -19 -48 -28 -59 -69 -78 -29 -14 -37 -24 -42 -54 -12 -78 -55 -98 -213 -98 l-115 0 -35 -35 c-34 -34 -38 -35 -113 -36 -223 -2 -266 3 -288 37 -15 23 -14 27 25 86 22 34 40 70 40 80 0 23 -27 78 -39 78 -5 0 -19 27 -31 59 -21 57 -41 78 -61 65 -5 -3 -9 -15 -9 -28 0 -12 -11 -33 -25 -46 -34 -32 -51 -21 -77 48 -16 43 -24 52 -44 52 -19 0 -28 -9 -43 -42z"/> </g> </svg> 