<?xml version="1.0" standalone="no"?>
<!DOCTYPE svg PUBLIC "-//W3C//DTD SVG 20010904//EN"
 "http://www.w3.org/TR/2001/REC-SVG-20010904/DTD/svg10.dtd">
<svg version="1.0" xmlns="http://www.w3.org/2000/svg"
 width="582.000000pt" height="582.000000pt" viewBox="0 0 582.000000 582.000000"
 preserveAspectRatio="xMidYMid meet">
<metadata>
Created by potrace 1.10, written by Peter Selinger 2001-2011
</metadata>
<g transform="translate(0.000000,582.000000) scale(0.100000,-0.100000)"
fill="#000000" stroke="none">
<path d="M530 4130 c0 -1472 2 -1700 15 -1772 15 -80 35 -161 56 -223 6 -16
15 -46 21 -65 5 -19 14 -39 19 -45 5 -5 9 -15 9 -23 0 -8 7 -30 16 -50 8 -21
21 -50 28 -67 11 -26 125 -255 165 -333 37 -72 239 -366 284 -414 6 -7 39 -47
71 -88 68 -86 393 -412 454 -456 22 -16 77 -57 121 -91 44 -35 83 -63 86 -63
4 0 24 -12 44 -27 40 -31 67 -48 96 -63 11 -6 34 -19 50 -29 49 -32 286 -151
300 -151 7 0 18 -6 24 -14 6 -8 22 -16 34 -19 12 -3 47 -15 77 -26 103 -41
237 -83 320 -101 82 -18 258 -2 325 29 11 5 31 12 45 14 32 7 110 34 132 47
10 6 23 10 28 10 6 0 32 9 58 21 26 11 58 25 72 31 14 6 32 14 40 19 8 5 22
12 30 15 8 3 22 10 30 15 8 5 22 12 30 15 8 3 22 10 30 15 8 5 21 11 28 14 6
3 18 7 25 10 95 39 360 221 537 371 89 75 315 303 387 389 23 28 52 61 64 75
23 26 154 201 179 240 8 12 23 33 32 45 10 13 18 26 18 30 0 3 11 21 24 38 25
33 66 104 111 192 14 28 30 57 34 65 11 18 44 93 85 192 8 18 19 44 24 58 54
127 98 272 123 405 11 56 14 406 16 1763 l3 1692 -2400 0 -2400 0 0 -1690z
m2995 1590 c4 -6 1 -18 -6 -26 -24 -29 -49 -118 -49 -173 0 -79 34 -170 86
-231 24 -29 44 -55 44 -58 0 -4 -16 -20 -35 -35 -19 -15 -35 -33 -35 -39 0 -6
-6 -19 -13 -27 -30 -37 -50 -121 -45 -196 3 -41 10 -80 15 -87 6 -7 13 -25 17
-39 3 -15 26 -50 52 -78 l46 -51 -46 -51 c-26 -28 -49 -63 -52 -78 -4 -14 -11
-32 -17 -39 -5 -7 -12 -43 -15 -81 -6 -88 18 -170 67 -229 70 -85 69 -79 28
-113 -21 -17 -37 -35 -37 -41 0 -6 -6 -19 -13 -27 -33 -41 -50 -121 -44 -214
5 -100 25 -160 58 -178 13 -6 76 -12 153 -13 124 -1 134 1 181 26 28 14 66 42
84 62 19 20 38 36 43 36 4 0 26 -20 49 -45 23 -25 48 -45 56 -45 7 0 26 -8 40
-17 40 -26 224 -24 273 3 60 33 99 64 105 84 9 29 21 25 73 -21 76 -67 121
-82 237 -83 114 0 145 11 227 83 46 41 68 51 68 30 0 -16 73 -79 92 -79 10 0
22 -9 28 -19 6 -13 10 -193 10 -517 0 -497 0 -498 -22 -521 -12 -13 -27 -23
-33 -23 -6 0 -30 -19 -53 -42 l-43 -42 -42 40 c-50 47 -75 61 -136 80 -117 35
-249 4 -338 -80 l-42 -40 -42 41 c-63 63 -139 93 -230 93 -61 -1 -143 -20
-161 -38 -7 -7 -17 -12 -22 -12 -6 0 -30 -19 -53 -42 l-43 -42 -42 41 c-24 22
-53 46 -66 52 -79 41 -190 51 -311 28 -62 -12 -65 -14 -79 -52 -20 -53 -22
-250 -3 -291 33 -71 46 -91 80 -127 l36 -38 -30 -27 c-64 -58 -105 -152 -105
-241 0 -78 36 -176 82 -224 21 -22 38 -48 38 -57 0 -9 -17 -35 -38 -57 -55
-57 -86 -154 -80 -247 3 -39 10 -80 16 -91 6 -11 13 -27 17 -35 13 -32 34 -63
65 -95 l33 -34 -47 -52 c-25 -28 -49 -63 -52 -78 -4 -14 -11 -32 -17 -39 -20
-25 -21 -146 -1 -208 17 -57 70 -144 86 -144 4 0 12 -10 19 -22 9 -18 8 -24
-9 -37 -29 -23 -82 -101 -82 -121 0 -9 -8 -25 -19 -34 -20 -19 -90 -56 -104
-56 -5 0 -23 -6 -40 -14 -198 -85 -381 -127 -478 -108 -73 15 -138 32 -176 48
-17 8 -38 14 -47 14 -8 0 -30 6 -48 14 -18 8 -49 21 -70 30 -20 9 -40 16 -44
16 -15 0 -54 44 -54 61 0 28 -38 94 -75 130 -28 28 -31 36 -22 56 5 13 14 23
18 23 14 0 75 106 87 153 16 62 15 114 -2 179 -19 71 -38 107 -81 148 -19 18
-35 38 -35 44 0 5 13 21 28 35 61 57 84 105 99 215 12 83 -37 221 -93 265 -31
24 -30 51 1 81 70 66 108 197 86 301 -15 77 -41 125 -90 173 l-39 38 42 42
c61 63 96 151 96 242 0 57 -22 178 -35 192 -46 51 -317 54 -367 4 -7 -7 -17
-12 -23 -12 -13 0 -75 -58 -75 -71 0 -20 -27 -8 -61 27 -77 80 -218 115 -333
82 -48 -14 -142 -72 -150 -93 -8 -22 -49 -18 -64 5 -32 51 -147 100 -237 100
-101 0 -170 -27 -243 -95 l-42 -39 -43 40 c-44 41 -96 74 -118 74 -7 0 -21 7
-31 17 -17 15 -18 44 -18 494 0 262 3 484 6 493 3 9 12 16 19 16 25 0 103 45
144 83 22 20 42 37 45 37 2 0 22 -17 43 -38 69 -69 113 -85 233 -85 120 0 162
15 232 85 43 43 50 42 103 -13 53 -54 107 -72 220 -73 89 0 106 3 150 26 28
14 66 42 84 62 33 34 61 47 61 27 0 -14 73 -81 88 -81 7 0 25 -8 39 -17 22
-15 49 -18 154 -17 167 1 188 11 205 104 26 136 9 248 -50 329 -20 27 -43 52
-51 55 -23 9 -18 23 24 69 46 51 62 78 78 137 16 60 16 118 -1 182 -19 71 -38
107 -81 148 -34 33 -45 60 -25 60 5 0 28 25 51 55 85 112 89 276 11 393 -19
29 -43 57 -54 63 -26 14 -23 24 20 72 20 23 43 53 51 67 17 30 40 125 41 167
0 39 -24 133 -41 160 -7 11 -9 28 -6 37 6 15 58 16 566 16 378 0 562 -3 566
-10z m-2060 -142 c3 -13 6 -54 7 -93 l3 -70 75 -3 c41 -2 80 -8 87 -14 8 -7
13 -35 13 -78 0 -43 -5 -71 -13 -78 -7 -6 -46 -12 -87 -14 l-75 -3 -3 -187 -2
-188 39 0 c77 0 232 62 318 126 17 13 41 24 52 24 21 0 21 -4 21 -220 0 -177
-3 -222 -14 -226 -7 -3 -43 15 -80 40 -36 26 -72 46 -80 46 -7 0 -19 7 -26 15
-7 8 -20 15 -30 15 -9 0 -30 6 -46 14 -16 8 -56 16 -89 18 l-60 3 0 -200 0
-200 80 -3 c43 -2 85 -8 92 -14 8 -7 13 -35 13 -78 0 -43 -5 -71 -13 -78 -7
-6 -49 -12 -92 -14 l-80 -3 -3 -94 c-1 -52 -8 -101 -14 -108 -14 -18 -142 -18
-156 0 -6 7 -13 56 -14 108 l-3 94 -70 3 c-119 4 -115 1 -115 86 0 48 4 77 13
84 7 6 49 12 92 14 l80 3 0 200 0 200 -60 -3 c-33 -2 -73 -10 -89 -18 -16 -8
-33 -14 -38 -14 -23 0 -108 -47 -176 -97 -25 -18 -48 -30 -53 -27 -10 6 -13
457 -3 467 3 3 42 -19 85 -49 43 -30 85 -54 92 -54 7 0 17 -4 22 -8 21 -19
147 -53 182 -50 l38 3 0 185 0 185 -70 3 c-119 4 -115 1 -115 86 0 48 4 77 13
84 7 6 49 12 92 14 l80 3 3 80 c2 43 8 85 14 92 7 9 36 13 84 13 68 0 74 -2
79 -22z m2814 -3294 c9 23 14 26 26 16 8 -7 15 -21 15 -32 0 -14 6 -18 22 -16
32 4 37 -30 7 -53 -35 -27 -165 -26 -197 1 -29 24 -24 44 9 45 19 0 25 6 27
30 6 60 11 62 47 20 l33 -40 11 29z m-329 -51 c32 -31 34 -35 18 -47 -22 -16
-22 -30 -4 -64 8 -15 17 -35 20 -46 5 -15 9 -16 22 -5 8 7 22 26 30 42 15 28
16 28 36 10 11 -10 25 -27 30 -38 5 -11 16 -33 24 -48 16 -29 13 -57 -5 -57
-6 0 -17 13 -25 28 -8 16 -22 34 -30 41 -13 11 -17 9 -25 -11 -5 -13 -17 -30
-26 -38 -15 -12 -19 -11 -35 10 -11 14 -31 51 -47 82 -24 49 -32 58 -58 60
-29 3 -30 4 -29 56 3 91 28 98 104 25z m694 40 c2 -10 6 -40 8 -68 l3 -50 -35
-5 c-24 -3 -36 -11 -38 -24 -4 -21 -70 -136 -78 -136 -18 0 -44 24 -44 40 0
45 -37 29 -60 -27 -5 -13 -18 -23 -30 -23 -11 0 -20 -3 -21 -7 -1 -5 -3 -138
-5 -298 -2 -159 -7 -306 -11 -325 l-9 -35 -65 -3 c-48 -2 -69 1 -78 12 -29 34
-35 680 -7 725 4 6 37 11 77 11 69 0 71 -1 82 -30 6 -16 14 -30 17 -30 3 1 18
28 35 60 27 56 64 87 73 61 15 -46 62 -63 62 -22 0 10 7 24 15 31 20 16 19 40
-1 55 -14 9 -14 16 -5 33 6 12 15 22 20 22 4 0 21 11 37 25 34 29 51 32 58 8z
m-903 -79 c6 -8 19 -14 29 -14 20 0 54 -46 45 -60 -8 -13 -54 -1 -84 22 -32
25 -54 56 -47 67 8 12 42 3 57 -15z m1079 6 c0 -5 -16 -25 -37 -45 -27 -26
-45 -35 -70 -35 -18 0 -33 2 -33 5 0 17 35 55 50 55 10 0 23 7 30 15 14 16 60
21 60 5z m-481 -46 c27 -6 32 -11 29 -33 -3 -26 -3 -26 -107 -29 -104 -3 -131
4 -131 35 0 7 10 18 23 23 26 10 141 13 186 4z m-442 -76 c11 -13 23 -30 27
-38 3 -8 22 -42 41 -75 18 -33 41 -75 49 -92 8 -18 35 -55 60 -81 42 -45 46
-53 46 -99 0 -32 -5 -55 -15 -63 -20 -17 -35 -4 -35 31 0 20 -5 29 -16 29 -10
0 -14 -7 -12 -22 2 -15 -3 -24 -14 -26 -14 -3 -18 3 -18 22 0 16 -6 26 -15 26
-8 0 -15 -4 -15 -10 0 -5 -7 -10 -15 -10 -8 0 -15 8 -15 19 0 10 7 24 15 31
18 15 20 53 3 48 -7 -3 -14 -14 -16 -26 -4 -24 -4 -24 -26 -16 -18 7 -22 49
-6 59 24 15 9 35 -25 35 -36 0 -50 22 -20 34 23 8 18 20 -15 39 -35 21 -39 42
-9 50 27 7 15 27 -16 27 -32 0 -45 38 -19 57 16 12 17 15 4 23 -8 5 -23 10
-32 10 -21 0 -24 26 -5 33 6 3 30 6 53 6 30 1 46 -5 61 -21z m811 16 c32 -9
27 -30 -8 -37 -35 -7 -39 -20 -10 -33 19 -8 19 -11 5 -31 -9 -13 -25 -23 -35
-23 -27 0 -36 -20 -11 -27 30 -8 26 -29 -9 -50 -33 -19 -38 -31 -15 -39 30
-12 16 -34 -20 -34 -36 0 -46 -15 -24 -37 16 -16 7 -57 -13 -61 -11 -2 -18 5
-20 19 -2 12 -9 24 -15 27 -18 5 -16 -30 2 -54 19 -25 19 -44 0 -44 -8 0 -15
5 -15 10 0 6 -7 10 -15 10 -9 0 -15 -10 -15 -26 0 -19 -4 -25 -17 -22 -12 2
-17 11 -15 26 2 15 -2 22 -12 22 -11 0 -16 -9 -16 -29 0 -35 -15 -48 -35 -31
-10 8 -15 31 -15 63 0 46 4 54 46 99 25 26 52 63 60 81 8 17 18 39 23 47 5 8
12 22 15 30 4 8 15 29 26 45 11 17 23 37 26 45 23 52 69 71 132 54z m-583
-523 c0 -7 -20 -32 -44 -56 -49 -49 -47 -67 9 -79 17 -3 30 -12 30 -20 0 -8
-31 -43 -70 -77 -72 -66 -82 -82 -53 -93 9 -4 13 -10 7 -15 -16 -15 -114 -43
-129 -37 -17 6 -20 48 -5 74 5 9 15 30 20 46 10 27 12 28 29 12 9 -9 21 -16
25 -16 12 0 96 71 96 81 0 5 -18 16 -40 25 -22 9 -40 19 -40 23 0 4 31 40 70
80 63 67 95 84 95 52z m358 -57 c34 -36 63 -69 65 -74 2 -4 -14 -14 -35 -20
-59 -19 -60 -26 -12 -69 50 -45 56 -47 80 -25 15 14 18 12 37 -28 29 -63 35
-97 18 -104 -22 -9 -136 27 -136 42 0 8 5 14 10 14 14 0 12 27 -2 39 -82 66
-128 112 -128 126 0 8 18 19 40 25 47 13 50 29 11 62 -26 22 -51 58 -51 72 0
3 9 6 20 6 12 0 46 -27 83 -66z m-125 -246 c7 -7 12 -20 12 -30 0 -23 -47 -31
-145 -26 -84 4 -103 14 -86 47 11 19 20 21 109 21 63 0 102 -4 110 -12z m-13
-100 c36 -16 34 -50 -2 -46 -24 3 -28 -1 -29 -22 -1 -51 -4 -60 -19 -60 -8 0
-15 6 -15 13 0 19 -37 50 -49 42 -6 -3 -11 -15 -11 -26 0 -34 -29 -21 -36 16
-7 37 -13 42 -32 23 -9 -9 -13 -7 -18 6 -4 11 2 26 16 42 21 21 32 24 96 24
40 0 85 -5 99 -12z"/>
<path d="M2149 3493 c-6 -15 -14 -39 -18 -53 -9 -32 -37 -38 -46 -11 -3 12
-13 21 -21 21 -21 0 -18 -46 7 -97 31 -65 24 -78 -41 -78 -54 0 -55 0 -55 -30
0 -33 20 -42 104 -44 66 -2 222 -31 257 -49 41 -20 101 -75 144 -132 18 -25
52 -65 74 -88 42 -45 148 -122 169 -122 29 -1 87 -72 87 -108 0 -10 -10 -28
-23 -40 -19 -18 -35 -22 -85 -22 -63 0 -82 -11 -62 -35 10 -13 59 -15 290 -15
231 0 280 2 290 15 20 24 1 35 -63 35 -74 0 -107 18 -107 58 0 37 35 92 59 92
11 0 23 5 26 10 3 6 15 10 25 10 20 0 54 32 287 270 171 176 221 210 311 210
85 0 124 -42 106 -114 -12 -48 -124 -110 -229 -126 -27 -4 -70 -12 -95 -18
-25 -7 -58 -14 -74 -17 -41 -8 -86 -57 -86 -92 0 -38 16 -53 57 -53 30 0 36 5
52 43 19 43 20 44 87 56 38 7 87 16 109 20 45 8 145 54 188 85 85 62 87 199 4
260 -22 17 -42 20 -115 20 -89 0 -123 -10 -207 -64 -72 -46 -117 -60 -190 -60
-67 0 -73 2 -83 25 -11 24 -14 25 -117 25 -99 0 -105 1 -120 23 -8 13 -14 35
-13 48 3 20 -2 25 -32 29 -27 4 -35 10 -33 24 6 78 -70 91 -86 15 -6 -28 -12
-35 -36 -39 -26 -4 -30 -10 -33 -40 -5 -52 -23 -60 -129 -60 -90 0 -94 -1
-105 -25 -11 -25 -13 -25 -124 -25 -89 0 -116 3 -128 16 -9 8 -16 18 -16 20 0
10 23 49 37 62 20 21 16 70 -7 82 -11 6 -20 18 -20 26 0 24 -30 75 -40 69 -6
-4 -10 -17 -10 -30 0 -26 -36 -53 -50 -38 -5 4 -12 24 -17 43 -12 45 -39 51
-54 13z"/>
</g>
</svg>
